<?xml version="1.0" encoding="UTF-8"?>
<svg version="1.1" xmlns="http://www.w3.org/2000/svg" width="500" height="500">
<path d="M0 0 C1.18070068 0.0930542 1.18070068 0.0930542 2.38525391 0.18798828 C25.72359907 2.13326497 47.46192472 8.00658527 69 17 C70.74410156 17.69222656 70.74410156 17.69222656 72.5234375 18.3984375 C81.60435049 22.09202234 89.76024653 26.74823894 98 32 C99.06476563 32.67289063 100.12953125 33.34578125 101.2265625 34.0390625 C107.25401981 37.9483436 112.86401539 42.18014275 118.36328125 46.80078125 C120.80021119 48.83336133 123.29271066 50.75963507 125.8125 52.6875 C130.3083084 56.26535395 134.3770798 60.19480355 138.4375 64.25 C139.34302612 65.15431763 139.34302612 65.15431763 140.2668457 66.0769043 C148 73.90831977 148 73.90831977 148 77 C148.66 77 149.32 77 150 77 C151.67077035 78.94422377 153.21953454 80.8869077 154.75 82.9375 C155.42760376 83.8349292 155.42760376 83.8349292 156.11889648 84.75048828 C159.59726186 89.38955618 162.91415351 94.08927475 166 99 C166.65226562 100.00417969 167.30453125 101.00835937 167.9765625 102.04296875 C182.4574093 124.82886325 192.01757348 150.53127486 197 177 C197.30357422 178.58361328 197.30357422 178.58361328 197.61328125 180.19921875 C200.4385457 196.69790047 201.70445327 213.34034388 200 230 C199.93264648 230.71961914 199.86529297 231.43923828 199.79589844 232.18066406 C198.72801062 243.5400103 197.11855805 254.78971533 195 266 C194.81147461 267.02528809 194.81147461 267.02528809 194.61914062 268.07128906 C190.05453024 292.1571393 178.91978483 314.61786807 166.05957031 335.29541016 C165.0597576 336.90386462 164.07243821 338.52006555 163.0859375 340.13671875 C159.76351432 345.50089538 156.36648958 350.43041788 152 355 C151.34 355 150.68 355 150 355 C149.72542969 355.59167969 149.45085937 356.18335938 149.16796875 356.79296875 C145.47714471 363.76726836 138.82709208 369.2700531 133.3125 374.8125 C132.65870361 375.47096924 132.00490723 376.12943848 131.33129883 376.80786133 C130.70247803 377.4345874 130.07365723 378.06131348 129.42578125 378.70703125 C128.86286377 379.2688208 128.29994629 379.83061035 127.7199707 380.40942383 C122.75594781 385 122.75594781 385 120 385 C120 385.66 120 386.32 120 387 C79.16319642 423.86856295 21.15612402 437.17435406 -32.375 434.625 C-44.05077315 433.99531619 -55.42197399 432.58040548 -66.79296875 429.76171875 C-68.88593281 429.26460792 -70.99407961 428.82662852 -73.11328125 428.45703125 C-95.50579402 424.46124155 -117.04891993 413.24974757 -136 401 C-137.00675781 400.36320312 -138.01351562 399.72640625 -139.05078125 399.0703125 C-145.55219676 394.87095462 -151.44436342 390.26610122 -157.3125 385.24609375 C-159.43093416 383.47560009 -161.51757205 381.89641429 -163.8125 380.375 C-167.12677528 377.90553999 -169.48721581 375.31018871 -172.125 372.16015625 C-174.10623926 369.87760352 -176.20635908 367.79213589 -178.375 365.6875 C-189.83856504 354.30152254 -198.48311742 340.93591406 -206.8125 327.1875 C-207.33553711 326.32753418 -207.33553711 326.32753418 -207.86914062 325.45019531 C-226.0069024 295.0305777 -235.3981757 259.29159402 -236 224 C-236.01514648 223.26555664 -236.03029297 222.53111328 -236.04589844 221.77441406 C-236.37834782 203.47348116 -234.39675017 185.97195412 -231 168 C-230.86255371 167.26136719 -230.72510742 166.52273437 -230.58349609 165.76171875 C-225.917109 141.71233369 -214.09533393 118.5177904 -201 98 C-200.42507812 97.04351562 -199.85015625 96.08703125 -199.2578125 95.1015625 C-195.75634248 89.34107957 -191.88989223 84.4203174 -187.28125 79.50390625 C-184.18629004 76.10686972 -181.41177435 72.49020875 -178.62890625 68.8359375 C-178.09136719 68.23007813 -177.55382812 67.62421875 -177 67 C-176.34 67 -175.68 67 -175 67 C-174.731875 66.401875 -174.46375 65.80375 -174.1875 65.1875 C-173.00082594 63.00152146 -171.90400887 61.58667406 -170 60 C-169.34 60 -168.68 60 -168 60 C-167.8040625 59.44828125 -167.608125 58.8965625 -167.40625 58.328125 C-165.41138499 55.02551515 -162.53825617 53.03249094 -159.5 50.75 C-158.22086466 49.77147289 -156.94222112 48.79230257 -155.6640625 47.8125 C-155.03661133 47.33425781 -154.40916016 46.85601562 -153.76269531 46.36328125 C-151.41814958 44.5499927 -149.15116792 42.64804231 -146.875 40.75 C-133.50413223 30 -133.50413223 30 -128 30 C-128 29.34 -128 28.68 -128 28 C-120.64667796 23.82389076 -113.45156895 20.21376134 -105.4921875 17.3125 C-102.97622456 16.36690319 -100.53071335 15.38421568 -98.0703125 14.3125 C-80.88926749 6.84847054 -63.56827421 3.11520593 -45 1 C-44.0713916 0.89026855 -43.1427832 0.78053711 -42.18603516 0.66748047 C-27.98915204 -0.96230714 -14.23934949 -1.1573386 0 0 Z M-19 40 C-18.96628222 41.66749727 -18.89623938 43.3342654 -18.8125 45 C-18.62664268 67.22322522 -29.97231259 85.47611537 -45 101 C-47.15005832 102.80861824 -49.28094107 104.42433661 -51.63671875 105.94921875 C-52.08660156 106.29597656 -52.53648437 106.64273438 -53 107 C-53 107.66 -53 108.32 -53 109 C-53.66 109 -54.32 109 -55 109 C-55 109.66 -55 110.32 -55 111 C-55.66 111 -56.32 111 -57 111 C-57 111.66 -57 112.32 -57 113 C-57.515625 113.226875 -58.03125 113.45375 -58.5625 113.6875 C-61.89547005 115.48217618 -65.14703671 117.49965015 -68 120 C-68 120.66 -68 121.32 -68 122 C-68.66 122 -69.32 122 -70 122 C-70 122.66 -70 123.32 -70 124 C-70.66 124 -71.32 124 -72 124 C-72.53625 124.680625 -73.0725 125.36125 -73.625 126.0625 C-75.61249878 128.52072218 -77.42167013 130.29624889 -79.8125 132.3125 C-93.77976397 144.31763447 -102.97256291 159.7129497 -108.3125 177.1875 C-108.56725098 178.01886475 -108.82200195 178.85022949 -109.08447266 179.70678711 C-114.9850505 199.9807221 -112.58147697 222.17294881 -102.51953125 240.73046875 C-101.11095679 242.92452172 -99.62777274 244.96426417 -98 247 C-97.45472656 247.69480469 -96.90945312 248.38960937 -96.34765625 249.10546875 C-92.40539855 253.87014755 -88.13305696 257.57175143 -83 261 C-82.23816406 261.515625 -81.47632813 262.03125 -80.69140625 262.5625 C-68.91594719 270.0987938 -56.84639019 272.82449555 -43 271 C-36.226738 269.22864316 -30.30681329 266.64341052 -26 261 C-25.67 260.01 -25.34 259.02 -25 258 C-25.76183594 257.79246094 -26.52367187 257.58492187 -27.30859375 257.37109375 C-34.82293714 255.1289863 -40.27583489 252.36020086 -46 247 C-46.63808594 246.41476562 -47.27617187 245.82953125 -47.93359375 245.2265625 C-51.87521681 241.20864996 -53.59166288 237.61037766 -55.3125 232.25 C-56.85822782 227.60248517 -56.85822782 227.60248517 -60.35546875 224.41796875 C-62.97376126 223.40829955 -62.97376126 223.40829955 -65.62109375 222.69140625 C-68.71907024 221.79100914 -70.70042761 220.22539264 -73 218 C-73.33 217.34 -73.66 216.68 -74 216 C-74.66 216 -75.32 216 -76 216 C-76.2475 215.484375 -76.495 214.96875 -76.75 214.4375 C-78.03906122 211.84273303 -78.03906122 211.84273303 -79.9375 208.875 C-84.90496217 200.10068689 -85.52396903 191.23565896 -85.4375 181.3125 C-85.42775146 180.06952148 -85.41800293 178.82654297 -85.40795898 177.54589844 C-85.03620114 158.29514328 -77.96018959 140.89963441 -64.8125 126.625 C-63.884375 125.75875 -62.95625 124.8925 -62 124 C-61.32453125 123.33097656 -60.6490625 122.66195312 -59.953125 121.97265625 C-53.22784963 115.5440842 -46.12992706 111.38757968 -38 107 C-37.14277344 106.47277344 -36.28554687 105.94554687 -35.40234375 105.40234375 C-32.93887471 103.96431873 -30.54978801 102.92357857 -27.875 101.9375 C-27.02679688 101.61652344 -26.17859375 101.29554688 -25.3046875 100.96484375 C-15.73065574 98.16958861 -6.37773431 97.61110376 3.5625 97.625 C4.22130157 97.62554382 4.88010315 97.62608765 5.55886841 97.62664795 C25.02842887 97.7003438 43.09011209 101.88387623 59.65625 112.5078125 C61.51872675 113.69358936 63.43532855 114.79425954 65.3671875 115.86328125 C69.05372415 117.95660152 72.32354247 120.41284669 75.625 123.0625 C76.21893555 123.53276611 76.81287109 124.00303223 77.42480469 124.48754883 C82.35722716 128.4187651 87.17218306 132.48616199 91.91259766 136.64672852 C94.56898505 139.2165549 94.56898505 139.2165549 98 140 C98 140.66 98 141.32 98 142 C99.47985777 143.4133544 99.47985777 143.4133544 101.4375 144.828125 C102.16839844 145.38113281 102.89929688 145.93414062 103.65234375 146.50390625 C104.42707031 147.08011719 105.20179688 147.65632813 106 148.25 C106.74378906 148.81074219 107.48757813 149.37148437 108.25390625 149.94921875 C109.75811337 151.08195211 111.26597354 152.20984976 112.77734375 153.33300781 C114.21962755 154.41472066 115.65022956 155.51225552 117.06640625 156.62792969 C121.48762899 160.08228033 125.82522074 162.59721097 131 164.75 C131.99 165.18505859 131.99 165.18505859 133 165.62890625 C139.49398382 168.40660636 145.85065078 170.35746746 153 170 C152.42901894 164.90054846 151.28306108 160.36180152 149.4375 155.5625 C149.17501465 154.87438232 148.9125293 154.18626465 148.64208984 153.47729492 C141.96699784 136.42539855 132.69951887 120.86655687 121.27001953 106.58740234 C119.98231239 104.97789219 118.70782082 103.35847437 117.43359375 101.73828125 C114.31345438 97.78597871 114.31345438 97.78597871 111 94 C110.34 94 109.68 94 109 94 C109 93.34 109 92.68 109 92 C108.34 92 107.68 92 107 92 C107 91.34 107 90.68 107 90 C105.38617052 88.54340023 103.70636784 87.15951049 102 85.8125 C98.54373544 83.05456 95.15030057 80.28281307 91.875 77.3125 C87.82852486 73.76068414 83.57222325 70.83593594 79 68 C78.42137207 67.63503418 77.84274414 67.27006836 77.24658203 66.89404297 C59.29127987 55.63393823 40.41013529 48.54623241 20 43 C19.30455078 42.81034668 18.60910156 42.62069336 17.89257812 42.42529297 C10.88462622 40.58944293 -13.68283888 34.68283888 -19 40 Z M-79.375 50 C-80.26405029 50.31469238 -81.15310059 50.62938477 -82.0690918 50.95361328 C-90.17777029 53.91428313 -97.56330945 57.65341369 -105 62 C-106.29009049 62.73095272 -107.58046021 63.46141282 -108.87109375 64.19140625 C-115.87441052 68.21199144 -122.2598914 72.52197912 -128.4140625 77.7890625 C-131.9101398 80.77815578 -135.55505699 83.56571261 -139.19921875 86.37109375 C-139.79347656 86.90863281 -140.38773438 87.44617188 -141 88 C-141 88.66 -141 89.32 -141 90 C-141.66 90 -142.32 90 -143 90 C-143 90.66 -143 91.32 -143 92 C-143.66 92 -144.32 92 -145 92 C-145 92.66 -145 93.32 -145 94 C-145.66 94 -146.32 94 -147 94 C-149.76336816 96.97181188 -152.21674311 100.19855426 -154.72363281 103.38818359 C-155.94102565 104.92552627 -157.1847587 106.44190086 -158.4296875 107.95703125 C-165.24575482 116.43900639 -170.6083361 125.5449042 -175.89306641 135.04223633 C-176.77167032 136.59616769 -177.69983275 138.12205963 -178.64453125 139.63671875 C-183.97869043 148.93690982 -186.73749488 160.0894641 -189.75 170.3125 C-190.04358398 171.30161377 -190.33716797 172.29072754 -190.63964844 173.30981445 C-193.66424449 183.79537217 -195.29407917 194.20295825 -196.25 205.0625 C-196.4046875 206.6084082 -196.4046875 206.6084082 -196.5625 208.18554688 C-196.69398438 209.65797852 -196.69398438 209.65797852 -196.828125 211.16015625 C-196.9096582 212.04324463 -196.99119141 212.92633301 -197.07519531 213.83618164 C-197.23879038 216.21595776 -197.23879038 216.21595776 -195 218 C-192.69437667 218.23027085 -190.3782945 218.35991501 -188.0625 218.4375 C-181.34142803 218.77363363 -175.37049442 219.8431326 -169 222 C-167.97390625 222.31582031 -166.9478125 222.63164062 -165.890625 222.95703125 C-156.78785394 226.03847169 -150.24474305 230.89762209 -143 237 C-142.22914063 237.63035156 -141.45828125 238.26070312 -140.6640625 238.91015625 C-136.18455497 242.63089005 -136.18455497 242.63089005 -135 245 C-134.34 245 -133.68 245 -133 245 C-132.74089844 245.59039062 -132.48179687 246.18078125 -132.21484375 246.7890625 C-130.90825284 249.16697393 -129.55454269 250.54447428 -127.5625 252.375 C-123.12268982 256.66031129 -119.44894465 261.40380725 -115.76977539 266.33935547 C-113.04484711 270.02237453 -113.04484711 270.02237453 -109 272 C-108.31379969 273.32338632 -107.65213539 274.65949948 -107 276 C-103.45593494 280.64103757 -99.64326019 284.11279037 -95 287.625 C-93.79156985 288.55456165 -92.58323484 289.484247 -91.375 290.4140625 C-90.7989502 290.85314941 -90.22290039 291.29223633 -89.62939453 291.74462891 C-88.16977068 292.86919975 -86.73538636 294.0263531 -85.3046875 295.1875 C-69.69543112 307.46325417 -46.49917997 313.52747554 -27 312 C-7.36226555 309.44809136 10.2134391 302.56352658 22.8359375 286.69140625 C32.32221286 273.7461615 37.73740427 260.22989842 36 244 C34.14629295 236.68072372 31.46285513 229.30857009 25 225 C24.01 225 23.02 225 22 225 C21.85304688 225.61746094 21.70609375 226.23492187 21.5546875 226.87109375 C18.69629787 237.66397874 13.04830525 245.42619009 4 252 C0.26046362 254.04914432 -3.56053925 255.56283044 -7.63671875 256.80078125 C-10.16095585 257.8039227 -10.16095585 257.8039227 -11.22265625 260.20703125 C-11.49980469 261.06683594 -11.77695312 261.92664063 -12.0625 262.8125 C-14.94698924 271.5988935 -21.38063145 276.24047574 -29 281 C-44.57073628 288.10627061 -65.96421003 286.47327342 -81.625 280.75 C-107.73952521 269.93426027 -123.06402203 250.66933481 -133.921875 225.1171875 C-136.48886224 217.69524614 -137.41801081 210.38377476 -137.75 202.5625 C-137.79092773 201.60746582 -137.83185547 200.65243164 -137.87402344 199.66845703 C-138.16531824 190.63381351 -137.49585454 181.90651007 -136 173 C-135.82726562 171.96101563 -135.65453125 170.92203125 -135.4765625 169.8515625 C-131.2694037 149.908537 -119.69853731 131.57599714 -106.34765625 116.54199219 C-103.42142148 113.19378589 -100.66742321 109.70191773 -97.875 106.2421875 C-96 104 -96 104 -94.25 102.3203125 C-92.77083125 101.06096806 -92.77083125 101.06096806 -93 99 C-92.34 99 -91.68 99 -91 99 C-89.35485725 96.88567577 -87.82220958 94.77072773 -86.3125 92.5625 C-83.45912928 88.44085041 -80.60563008 84.47459959 -77.3125 80.6875 C-70.44764263 72.03322483 -65 58.04908414 -65 47 C-70.17249635 46.49330648 -74.57972059 48.29732504 -79.375 50 Z M-33 129 C-34.58554688 129.63421875 -34.58554688 129.63421875 -36.203125 130.28125 C-48.63276164 135.76303847 -57.58179013 145.17879308 -64 157 C-64.47050781 157.83402344 -64.94101563 158.66804688 -65.42578125 159.52734375 C-71.70678052 171.25558132 -73.90524267 182.7283065 -70.4375 195.6875 C-68.51600315 201.43826557 -65.87938123 206.25272578 -61 210 C-60.01 210 -59.02 210 -58 210 C-57.78085938 209.2265625 -57.56171875 208.453125 -57.3359375 207.65625 C-53.98594168 196.6530117 -48.54034241 188.65064966 -39 182 C-36.95855678 181.17501523 -34.8942773 180.40464262 -32.8125 179.6875 C-26.69190634 177.40392825 -24.89926047 174.4319255 -22.203125 168.64453125 C-21.80609375 167.77183594 -21.4090625 166.89914063 -21 166 C-15.0350022 157.13771756 -5.27546922 152.12809831 5 150 C9.11480986 149.60353607 13.1811712 149.57084341 17.3125 149.625 C18.9668103 149.63805176 18.9668103 149.63805176 20.65454102 149.65136719 C28.49263536 149.79258368 35.5437271 150.43690619 43 153 C43.825 153.26683594 44.65 153.53367188 45.5 153.80859375 C48.0831786 154.74002834 50.52071887 155.81904065 53 157 C54.05703125 157.49757812 55.1140625 157.99515625 56.203125 158.5078125 C77.34131168 169.45606614 91.03343187 189.99887027 99 212 C100.91249001 219.21246234 101.60690692 226.56866893 102 234 C102.05414063 234.96164062 102.10828125 235.92328125 102.1640625 236.9140625 C102.97566644 265.46776467 92.88529125 289.78533423 75.37109375 311.875 C72.88817125 314.79963097 72.88817125 314.79963097 72 318 C71.01 318.33 70.02 318.66 69 319 C67.63774839 320.9804162 66.30898128 322.98397773 65 325 C62.41128099 327.93388154 59.73459702 330.76629332 57.046875 333.609375 C54.78320586 335.72867117 54.78320586 335.72867117 55 338 C54.34 338 53.68 338 53 338 C52.02591857 339.3963956 51.06132343 340.80056185 50.15087891 342.23925781 C48.99624456 344.00574549 47.75573391 345.64804771 46.44921875 347.3046875 C37.76271594 358.46233712 28.07419205 373.1870728 29 388 C32.46921842 389.15640614 33.20757955 388.82959289 36.54296875 387.62890625 C37.44442627 387.30583496 38.34588379 386.98276367 39.2746582 386.64990234 C40.235896 386.29105957 41.19713379 385.9322168 42.1875 385.5625 C43.66512817 385.01650146 43.66512817 385.01650146 45.17260742 384.45947266 C56.26795352 380.27067998 67.09101964 375.42087225 76.80859375 368.54296875 C78.43678015 367.396563 80.10227191 366.30277051 81.78515625 365.23828125 C88.5893924 360.90990909 94.43295693 356.12278764 100.25390625 350.59375 C102.51330402 348.45969577 104.80884594 346.43462737 107.1875 344.4375 C129.19787563 325.13887496 142.44401851 298.08839695 152 271 C152.3722168 269.96866943 152.3722168 269.96866943 152.75195312 268.91650391 C158.40758643 253.11145067 160.90423417 235.78296134 161 219 C160.67 218.34 160.34 217.68 160 217 C158.04900622 216.59719567 158.04900622 216.59719567 155.6953125 216.5078125 C154.80706787 216.4449707 153.91882324 216.38212891 153.00366211 216.31738281 C152.05370361 216.25389648 151.10374512 216.19041016 150.125 216.125 C142.17560014 215.47270059 135.24526591 214.52625618 128 211 C126.93910156 210.48566406 125.87820313 209.97132813 124.78515625 209.44140625 C122.69102248 208.40305455 120.60527891 207.34748049 118.53125 206.26953125 C115.97662921 204.91296382 115.97662921 204.91296382 113 204 C113 203.34 113 202.68 113 202 C110.36315253 199.60179695 110.36315253 199.60179695 107 199 C107 198.34 107 197.68 107 197 C105.37298218 195.66061634 105.37298218 195.66061634 103.3125 194.3125 C100.31958711 192.16713766 98.18718033 190.17801772 96.125 187.125 C95.42375 186.09375 94.7225 185.0625 94 184 C93.34 184 92.68 184 92 184 C91.7525 183.38125 91.505 182.7625 91.25 182.125 C90.17856271 179.86253506 90.17856271 179.86253506 88 179 C85.4057408 177.7028704 85.20434274 176.62121655 84 174 C83.19133191 172.73390349 82.35565037 171.48483071 81.5 170.25 C81.0771875 169.63640625 80.654375 169.0228125 80.21875 168.390625 C79.61546875 167.70226562 79.61546875 167.70226562 79 167 C78.34 167 77.68 167 77 167 C76.01 165.02 76.01 165.02 75 163 C74.34 163 73.68 163 73 163 C73 162.34 73 161.68 73 161 C72.34 161 71.68 161 71 161 C70.75378906 160.4328125 70.50757813 159.865625 70.25390625 159.28125 C60.81756289 142.11357236 37.45286369 131.35454366 19.63671875 126.015625 C2.88229888 121.33662482 -17.04809086 121.96019033 -33 129 Z M-10 173 C-10.79623822 175.09415804 -10.79623822 175.09415804 -11 177 C-10.19175781 177.26554688 -9.38351562 177.53109375 -8.55078125 177.8046875 C-6.94783203 178.33449219 -6.94783203 178.33449219 -5.3125 178.875 C-4.25675781 179.22304687 -3.20101562 179.57109375 -2.11328125 179.9296875 C0.63149994 180.87331366 3.31692815 181.89491289 6 183 C6 183.66 6 184.32 6 185 C7.1868363 186.0896512 8.42619706 187.12248565 9.6875 188.125 C15.25019266 192.87340079 18.23122947 197.86201093 20.6875 204.6875 C22.74316026 209.59918005 25.84081917 210.86377408 30.58984375 212.87109375 C33.83560264 214.39139249 35.60566211 216.38119293 38 219 C38.66 219 39.32 219 40 219 C40.41765625 219.87398437 40.41765625 219.87398437 40.84375 220.765625 C42.27789059 223.53700479 44.01242526 226.04242203 45.78125 228.609375 C52.74190463 242.26296677 51.10207808 263.1427267 47.03125 277.390625 C42.22327783 290.83995254 35.15248792 301.9948869 25 312 C24.04867187 312.94939453 24.04867187 312.94939453 23.078125 313.91796875 C4.49903595 331.26639164 -18.91741414 337.97189365 -43.87890625 337.28125 C-78.72825954 335.6829613 -104.86670512 318.44518201 -130.3815918 295.88427734 C-133.11074308 293.49561673 -135.62670293 291.3904566 -139 290 C-139 289.34 -139 288.68 -139 288 C-140.61323158 286.71663412 -140.61323158 286.71663412 -142.75 285.4375 C-146.54604738 283.02076176 -150.00336094 280.39265261 -153.5 277.5625 C-163.86707895 269.74752084 -175.88963933 264.82317433 -189 265 C-186.04598502 287.93920277 -171.33207497 311.10376675 -156.95703125 328.59765625 C-154.35790158 331.78820465 -151.90139674 335.08137833 -149.4453125 338.3828125 C-148.96835938 338.91648437 -148.49140625 339.45015625 -148 340 C-147.34 340 -146.68 340 -146 340 C-145.731875 340.639375 -145.46375 341.27875 -145.1875 341.9375 C-144.11332248 344.33131686 -144.11332248 344.33131686 -141 345 C-141 345.66 -141 346.32 -141 347 C-114.6248184 375.97799558 -69.32996504 393.39677209 -31 396 C-26.66082443 396.16855363 -22.33453973 396.31064201 -18 396 C-16.46814707 394.46814707 -16.76868291 392.97097195 -16.640625 390.8359375 C-15.10843757 368.92545374 -9.02069795 353.97717342 6.34765625 337.92578125 C8.21705721 336.16993875 8.21705721 336.16993875 8 334 C8.57878906 333.73832031 9.15757812 333.47664062 9.75390625 333.20703125 C12.13570631 331.92707261 13.92316646 330.48643946 15.9375 328.6875 C16.63875 328.06230469 17.34 327.43710937 18.0625 326.79296875 C19.56207478 325.40525741 21.01117579 323.96289663 22.4375 322.5 C24.60085393 320.3894108 26.71369692 318.67600867 29.125 316.875 C34.11350998 313.08540923 38.36620844 308.74712097 42.71484375 304.2578125 C45 302 45 302 47 301 C47 300.34 47 299.68 47 299 C47.66 299 48.32 299 49 299 C50.65375731 297.09833026 52.17899588 295.20014951 53.6875 293.1875 C54.13375732 292.59727051 54.58001465 292.00704102 55.03979492 291.39892578 C66.68728634 275.82289143 75.30959739 258.8115533 76 239 C76.03996094 237.92234375 76.07992188 236.8446875 76.12109375 235.734375 C76.44242149 218.57169313 73.53021979 200.47281117 62 187 C61.34 187 60.68 187 60 187 C59.7525 186.41992188 59.505 185.83984375 59.25 185.2421875 C53.57902644 175.06987868 39.70997569 168.35999237 29 165 C15.13026855 161.74957026 1.06584225 163.07974054 -10 173 Z " fill="#F7F7F7" transform="translate(268,33)"/>
<path d="M0 0 C1 3 1 3 0.375 4.9375 C-1.36324718 7.54487077 -3.52850251 9.09884809 -6 11 C-6.33 11.66 -6.66 12.32 -7 13 C-7.66 13 -8.32 13 -9 13 C-7.47987323 7.59510481 -3.72614782 4.01507372 0 0 Z " fill="#C2C0C1" transform="translate(270,375)"/>
<path d="M0 0 C0.66 0.33 1.32 0.66 2 1 C0.89718873 2.27200971 -0.20730769 3.54255853 -1.3125 4.8125 C-1.92738281 5.52019531 -2.54226563 6.22789062 -3.17578125 6.95703125 C-4.73334335 8.70136739 -6.32658875 10.36778041 -8 12 C-8.99 11.67 -9.98 11.34 -11 11 C-7.37 7.37 -3.74 3.74 0 0 Z " fill="#C3C3C3" transform="translate(313,334)"/>
<path d="M0 0 C0.12375 0.639375 0.2475 1.27875 0.375 1.9375 C0.684375 2.9584375 0.684375 2.9584375 1 4 C1.66 4.33 2.32 4.66 3 5 C2.01 5.66 1.02 6.32 0 7 C-0.33 7.99 -0.66 8.98 -1 10 C-1.66 10 -2.32 10 -3 10 C-3 10.99 -3 11.98 -3 13 C-3.66 13 -4.32 13 -5 13 C-4.54554036 11.58208592 -4.08625056 10.16571954 -3.625 8.75 C-3.24214844 7.56664062 -3.24214844 7.56664062 -2.8515625 6.359375 C-2.04826333 4.13372042 -1.10288338 2.09068328 0 0 Z " fill="#BBB4B5" transform="translate(337,299)"/>
<path d="M0 0 C0.33 0.99 0.66 1.98 1 3 C-2.28804981 5.91227269 -4.59885603 7.49701212 -9 8 C-6.14723863 5.06799526 -3.34920216 2.35684596 0 0 Z " fill="#B1AFB1" transform="translate(115,79)"/>
<path d="M0 0 C1 2 1 2 0.3125 4.375 C-1.10916729 7.21833459 -2.57792728 8.95637614 -5 11 C-5.66 11 -6.32 11 -7 11 C-5.22054913 6.95579349 -2.60470327 3.53921513 0 0 Z " fill="#AEADAC" transform="translate(398,349)"/>
<path d="M0 0 C0.91222891 3.07877257 1.32903218 5.79193623 1 9 C-0.375 10.8125 -0.375 10.8125 -2 12 C-2.66 12 -3.32 12 -4 12 C-3.52309796 10.37433394 -3.04340334 8.74948689 -2.5625 7.125 C-2.29566406 6.22007812 -2.02882813 5.31515625 -1.75390625 4.3828125 C-1 2 -1 2 0 0 Z " fill="#B7B5B4" transform="translate(417,310)"/>
<path d="M0 0 C0.33 0.66 0.66 1.32 1 2 C-0.8125 5 -0.8125 5 -3 8 C-6 8 -6 8 -8 7 C-5.36 4.69 -2.72 2.38 0 0 Z " fill="#C1BFBE" transform="translate(367,384)"/>
<path d="M0 0 C2.475 0.495 2.475 0.495 5 1 C5 1.66 5 2.32 5 3 C5.66 3 6.32 3 7 3 C8.625 5 8.625 5 10 7 C9.01 7 8.02 7 7 7 C6.67 6.01 6.34 5.02 6 4 C2.99152582 2.77479736 2.99152582 2.77479736 0 2 C0 1.34 0 0.68 0 0 Z " fill="#A8A6A6" transform="translate(290,256)"/>
<path d="M0 0 C0 3 0 3 -1 5 C-1.66 5 -2.32 5 -3 5 C-3.103125 5.639375 -3.20625 6.27875 -3.3125 6.9375 C-3.539375 7.618125 -3.76625 8.29875 -4 9 C-4.99 9.33 -5.98 9.66 -7 10 C-5.33248852 6.05860922 -2.77289351 3.2107188 0 0 Z " fill="#A4A2A3" transform="translate(252,192)"/>
<path d="M0 0 C0.78890625 0.12761719 1.5778125 0.25523437 2.390625 0.38671875 C3.18984375 0.50660156 3.9890625 0.62648438 4.8125 0.75 C5.41578125 0.85699219 6.0190625 0.96398437 6.640625 1.07421875 C6.640625 1.40421875 6.640625 1.73421875 6.640625 2.07421875 C0.205625 2.56921875 0.205625 2.56921875 -6.359375 3.07421875 C-2.359375 0.07421875 -2.359375 0.07421875 0 0 Z " fill="#B9B5B6" transform="translate(223.359375,315.92578125)"/>
<path d="M0 0 C2.64 0 5.28 0 8 0 C7.67 1.65 7.34 3.3 7 5 C6.34 5 5.68 5 5 5 C4.67 4.01 4.34 3.02 4 2 C1.99983534 0.79117904 1.99983534 0.79117904 0 0 Z " fill="#9B9797" transform="translate(237,289)"/>
<path d="M0 0 C0.33 0.99 0.66 1.98 1 3 C-0.28965176 4.37562854 -1.62689293 5.70766393 -3 7 C-3.66 7 -4.32 7 -5 7 C-3.70700306 4.11562221 -2.34058637 2.12780579 0 0 Z " fill="#BDB7B7" transform="translate(221,221)"/>
</svg>
